# Blender v2.76 (sub 0) OBJ File: 'markerButton.blend'
# www.blender.org
mtllib markerButton.mtl
o marker_Circle.001
v 0.000000 0.000000 -1.000000
v -0.195090 0.000000 -0.980785
v -0.382683 0.000000 -0.923880
v -0.555570 0.000000 -0.831470
v -1.000000 0.000000 -0.000000
v -0.831470 0.000000 0.555570
v -0.707107 0.000000 0.707107
v -0.555570 0.000000 0.831470
v -0.382683 0.000000 0.923880
v -0.195090 0.000000 0.980785
v 0.000000 0.000000 1.000000
v 0.195091 0.000000 0.980785
v 0.382684 0.000000 0.923879
v 0.555571 0.000000 0.831469
v 0.555569 0.000000 -0.831470
v 0.382682 0.000000 -0.923880
v 0.195089 0.000000 -0.980786
v -0.000000 0.000000 -0.000000
v 1.914214 0.000000 0.000000
v -0.707107 0.000000 -0.707107
v -0.831470 0.000000 -0.555570
v -0.923880 0.000000 -0.382683
v -0.980785 0.000000 -0.195090
v -0.980785 0.000000 0.195090
v -0.923880 0.000000 0.382683
v 0.000000 0.000000 -1.000000
v -0.195090 0.000000 -0.980785
v -0.382683 0.000000 -0.923880
v -0.555570 0.000000 -0.831470
v -1.000000 0.000000 -0.000000
v -0.831470 0.000000 0.555570
v -0.707107 0.000000 0.707107
v -0.555570 0.000000 0.831470
v -0.382683 0.000000 0.923880
v -0.195090 0.000000 0.980785
v 0.000000 0.000000 1.000000
v 0.195091 0.000000 0.980785
v 0.382684 0.000000 0.923879
v 0.555571 0.000000 0.831469
v 0.555569 0.000000 -0.831470
v 0.382682 0.000000 -0.923880
v 0.195089 0.000000 -0.980786
v -0.000000 0.000000 -0.000000
v 1.914214 0.000000 0.000000
v -0.707107 0.000000 -0.707107
v -0.831470 0.000000 -0.555570
v -0.923880 0.000000 -0.382683
v -0.980785 0.000000 -0.195090
v -0.980785 0.000000 0.195090
v -0.923880 0.000000 0.382683
v 0.000000 0.193200 -1.000000
v -0.195090 0.193200 -0.980785
v -0.382683 0.193200 -0.923880
v -0.555570 0.193200 -0.831470
v -1.000000 0.193200 -0.000000
v -0.831470 0.193200 0.555570
v -0.707107 0.193200 0.707107
v -0.555570 0.193200 0.831470
v -0.382683 0.193200 0.923880
v -0.195090 0.193200 0.980785
v 0.000000 0.193200 1.000000
v 0.195091 0.193200 0.980785
v 0.382684 0.193200 0.923879
v 0.555571 0.193200 0.831469
v 0.555569 0.193200 -0.831470
v 0.382682 0.193200 -0.923880
v 0.195089 0.193200 -0.980786
v -0.000000 0.193200 -0.000000
v 1.914214 0.193200 0.000000
v -0.707107 0.193200 -0.707107
v -0.831470 0.193200 -0.555570
v -0.923880 0.193200 -0.382683
v -0.980785 0.193200 -0.195090
v -0.980785 0.193200 0.195090
v -0.923880 0.193200 0.382683
vt 0.705251 0.455651
vt 0.511428 0.128279
vt 0.308112 0.449843
vt 0.285439 0.490808
vt 0.271193 0.535410
vt 0.265923 0.581933
vt 0.269830 0.628591
vt 0.282765 0.673591
vt 0.304230 0.715202
vt 0.333401 0.751826
vt 0.369156 0.782055
vt 0.410122 0.804729
vt 0.454724 0.818974
vt 0.501248 0.824244
vt 0.547906 0.820337
vt 0.592905 0.807402
vt 0.634516 0.785937
vt 0.671140 0.756766
vt 0.701369 0.721011
vt 0.724043 0.680046
vt 0.738288 0.635444
vt 0.743558 0.588920
vt 0.739651 0.542262
vt 0.726716 0.497263
vn 0.000000 1.000000 0.000000
vn 0.471400 0.000000 -0.881900
vn 0.000000 0.000000 1.000000
vn 0.000000 -1.000000 0.000000
vn -0.290300 0.000000 0.956900
vn -0.522000 0.000000 -0.852900
vn 0.881900 0.000000 0.471400
vn 0.634400 0.000000 -0.773000
vn -0.471400 0.000000 0.881900
vn -0.522000 0.000000 0.852900
vn 0.773000 0.000000 0.634400
vn 0.773000 0.000000 -0.634400
vn -0.471400 0.000000 -0.881900
vn 0.634400 0.000000 0.773000
vn 0.881900 0.000000 -0.471400
vn -0.290300 0.000000 -0.956900
vn 0.471400 0.000000 0.881900
vn 0.956900 0.000000 -0.290300
vn -0.098000 0.000000 -0.995200
vn 0.290300 0.000000 0.956900
vn 0.995200 0.000000 -0.098000
vn 0.098000 0.000000 -0.995200
vn 0.098000 0.000000 0.995200
vn 0.995200 0.000000 0.098000
vn 0.290300 0.000000 -0.956900
vn -0.098000 0.000000 0.995200
vn 0.956900 0.000000 0.290300
usemtl Material.001
s off
f 14/1/1 19/2/1 15/3/1 16/4/1 17/5/1 1/6/1 2/7/1 3/8/1 4/9/1 20/10/1 21/11/1 22/12/1 23/13/1 5/14/1 24/15/1 25/16/1 6/17/1 7/18/1 8/19/1 9/20/1 10/21/1 11/22/1 12/23/1 13/24/1
f 34/20/2 33/19/2 58/19/2 59/20/2
f 21/11/3 20/10/3 45/10/3 46/11/3
f 7/18/3 6/17/3 31/17/3 32/18/3
f 14/1/3 13/24/3 38/24/3 39/1/3
f 20/10/3 4/9/3 29/9/3 45/10/3
f 6/17/3 25/16/3 50/16/3 31/17/3
f 13/24/3 12/23/3 37/23/3 38/24/3
f 4/9/3 3/8/3 28/8/3 29/9/3
f 25/16/3 24/15/3 49/15/3 50/16/3
f 12/23/3 11/22/3 36/22/3 37/23/3
f 3/8/3 2/7/3 27/7/3 28/8/3
f 24/15/3 5/14/3 30/14/3 49/15/3
f 11/22/3 10/21/3 35/21/3 36/22/3
f 2/7/3 1/6/3 26/6/3 27/7/3
f 5/14/3 23/13/3 48/13/3 30/14/3
f 10/21/3 9/20/3 34/20/3 35/21/3
f 1/6/3 17/5/3 42/5/3 26/6/3
f 23/13/3 22/12/3 47/12/3 48/13/3
f 9/20/3 8/19/3 33/19/3 34/20/3
f 17/5/3 16/4/3 41/4/3 42/5/3
f 19/2/3 14/1/3 39/1/3 44/2/3
f 22/12/3 21/11/3 46/11/3 47/12/3
f 8/19/3 7/18/3 32/18/3 33/19/3
f 16/4/3 15/3/3 40/3/3 41/4/3
f 15/3/3 19/2/3 44/2/3 40/3/3
f 64/1/4 63/24/4 62/23/4 61/22/4 60/21/4 59/20/4 58/19/4 57/18/4 56/17/4 75/16/4 74/15/4 55/14/4 73/13/4 72/12/4 71/11/4 70/10/4 54/9/4 53/8/4 52/7/4 51/6/4 67/5/4 66/4/4 65/3/4 69/2/4
f 42/5/5 41/4/5 66/4/5 67/5/5
f 44/2/6 39/1/6 64/1/6 69/2/6
f 47/12/7 46/11/7 71/11/7 72/12/7
f 33/19/8 32/18/8 57/18/8 58/19/8
f 41/4/9 40/3/9 65/3/9 66/4/9
f 40/3/10 44/2/10 69/2/10 65/3/10
f 46/11/11 45/10/11 70/10/11 71/11/11
f 32/18/12 31/17/12 56/17/12 57/18/12
f 39/1/13 38/24/13 63/24/13 64/1/13
f 45/10/14 29/9/14 54/9/14 70/10/14
f 31/17/15 50/16/15 75/16/15 56/17/15
f 38/24/16 37/23/16 62/23/16 63/24/16
f 29/9/17 28/8/17 53/8/17 54/9/17
f 50/16/18 49/15/18 74/15/18 75/16/18
f 37/23/19 36/22/19 61/22/19 62/23/19
f 28/8/20 27/7/20 52/7/20 53/8/20
f 49/15/21 30/14/21 55/14/21 74/15/21
f 36/22/22 35/21/22 60/21/22 61/22/22
f 27/7/23 26/6/23 51/6/23 52/7/23
f 30/14/24 48/13/24 73/13/24 55/14/24
f 35/21/25 34/20/25 59/20/25 60/21/25
f 26/6/26 42/5/26 67/5/26 51/6/26
f 48/13/27 47/12/27 72/12/27 73/13/27
l 18 43
l 43 68
