# Blender v2.76 (sub 0) OBJ File: 'userModel.blend'
# www.blender.org
mtllib userModel.mtl
o Cube_Cube.001
v -0.464727 0.176348 0.001290
v -0.464727 0.251972 0.001290
v -0.464727 0.176348 0.001290
v -0.464727 0.251972 0.001290
v 0.435273 0.176348 0.401290
v 0.435273 0.251972 0.401290
v 0.435273 0.182115 -0.398710
v 0.435273 0.257740 -0.398710
v 0.535273 0.251972 -0.248710
v 0.535273 0.251972 0.001290
v 0.535273 0.251972 0.251290
v 0.535273 0.176348 0.251290
v 0.535273 0.176348 0.001290
v 0.535273 0.176348 -0.248710
vt 0.491720 0.979657
vt 0.524907 0.927144
vt 0.508303 0.106560
vt 0.436097 0.104368
vt 0.453193 0.924523
vt 0.503298 0.105602
vt 0.528298 0.920563
vt 0.456626 0.917859
vt 0.431080 0.103411
vt 0.849665 0.118396
vt 0.716241 0.020157
vt 0.492308 0.016888
vt 0.269383 0.016816
vt 0.133303 0.110547
vt 0.472084 0.584285
vt 0.473452 0.706284
vt 0.401594 0.704639
vt 0.400184 0.582798
vt 0.477448 0.033794
vt 0.469255 0.171084
vt 0.397216 0.170120
vt 0.405323 0.033155
vt 0.469373 0.382583
vt 0.397403 0.381359
vn 0.000000 0.000000 1.000000
vn -0.406100 0.000000 -0.913800
vn -0.406100 0.000000 0.913800
vn -0.001700 -1.000000 -0.006800
vn 0.001700 1.000000 0.006800
vn 0.832100 0.000000 0.554700
vn 0.832100 0.000000 -0.554700
vn 1.000000 0.000000 0.000000
usemtl Material
s off
f 2/1/1 4/1/1 3/1/1 1/1/1
f 4/2/2 8/3/2 7/4/2 3/5/2
f 6/6/3 2/7/3 1/8/3 5/9/3
f 1/1/4 3/1/4 7/10/4 14/11/4 13/12/4 12/13/4 5/14/4
f 6/14/5 11/13/5 10/12/5 9/11/5 8/10/5 4/1/5 2/1/5
f 11/15/6 6/16/6 5/17/6 12/18/6
f 8/19/7 9/20/7 14/21/7 7/22/7
f 9/20/8 10/23/8 11/15/8 12/18/8 13/24/8 14/21/8
